<?xml version="1.0" encoding="utf-8"?>
<!-- Generator: Adobe Illustrator 16.0.0, SVG Export Plug-In . SVG Version: 6.00 Build 0)  -->
<!DOCTYPE svg PUBLIC "-//W3C//DTD SVG 1.1//EN" "http://www.w3.org/Graphics/SVG/1.1/DTD/svg11.dtd">
<svg version="1.1" id="Layer_1" xmlns="http://www.w3.org/2000/svg" xmlns:xlink="http://www.w3.org/1999/xlink" x="0px" y="0px"
	 width="134px" height="61px" viewBox="0 0 134 61" enable-background="new 0 0 134 61" xml:space="preserve">
<g>
	<g>
		<polyline fill-rule="evenodd" clip-rule="evenodd" fill="#13639C" points="37.861,50.527 31.908,50.527 31.908,43.438 
			30.159,43.438 30.159,50.527 24.228,50.527 24.228,33.663 30.159,33.663 30.159,39.709 31.908,39.709 31.908,33.663 
			37.861,33.663 37.861,50.527 		"/>
		<path fill-rule="evenodd" clip-rule="evenodd" fill="#13639C" d="M47.423,37.412c-0.664,3.224-1.062,5.582-1.263,7.09h2.238
			C48.088,42.566,47.776,40.233,47.423,37.412 M55.634,50.506h-6.729l-0.31-3.02H46.25l-0.398,3.02h-6.772l3.342-16.864h9.45
			L55.634,50.506z"/>
		<path fill-rule="evenodd" clip-rule="evenodd" fill="#13639C" d="M63.514,40.773c0.133,0,0.309,0,0.443,0
			c0.598,0,0.996-0.076,1.283-0.259c0.199-0.224,0.331-0.606,0.331-1.248v-1.37c0-0.586-0.132-0.948-0.42-1.131
			c-0.243-0.164-0.818-0.239-1.638-0.239V40.773 M63.535,33.623c1.793,0,3.145,0.102,4.095,0.28c0.975,0.183,1.704,0.443,2.192,0.81
			c0.465,0.361,0.796,0.784,0.973,1.289c0.155,0.524,0.244,1.268,0.266,2.338v1.466c0,1.069-0.176,1.834-0.508,2.338
			c-0.312,0.504-0.93,0.866-1.816,1.151c-0.907,0.24-2.057,0.362-3.475,0.382h-1.748v6.789h-6.596V33.623H63.535z"/>
		<polyline fill-rule="evenodd" clip-rule="evenodd" fill="#13639C" points="81.486,46.86 85.447,46.86 85.447,50.227 
			74.889,50.227 74.889,33.362 81.486,33.362 81.486,46.86 		"/>
		<path fill-rule="evenodd" clip-rule="evenodd" fill="#13639C" d="M101.56,44.925c0,1.252-0.042,2.139-0.198,2.679
			c-0.09,0.504-0.466,1.029-1.063,1.594c-0.62,0.545-1.438,0.927-2.435,1.248c-1.019,0.286-2.17,0.403-3.541,0.422
			c-1.506,0-2.833-0.157-3.983-0.524c-1.152-0.321-2.017-0.743-2.569-1.289c-0.597-0.545-0.906-1.084-1.018-1.671
			c-0.11-0.626-0.153-1.854-0.176-3.769v-9.973h6.572v12.632c0,0.728,0.022,1.212,0.155,1.431c0.11,0.204,0.355,0.285,0.729,0.306
			c0.4,0,0.666-0.102,0.798-0.346c0.111-0.22,0.2-0.744,0.2-1.589V33.643h6.528V44.925"/>
		<polyline fill-rule="evenodd" clip-rule="evenodd" fill="#13639C" points="46.316,32.976 48.42,31.367 53.089,31.367 
			49.438,33.017 46.316,32.976 		"/>
		<path fill-rule="evenodd" clip-rule="evenodd" fill="#13639C" d="M110.879,37.228c-0.644,3.205-1.04,5.562-1.241,7.075h2.237
			C111.564,42.367,111.255,40.05,110.879,37.228 M119.112,50.308h-6.729l-0.311-3.025h-2.366l-0.377,3.025h-6.795l3.341-16.849
			h9.474L119.112,50.308z"/>
		<polyline fill-rule="evenodd" clip-rule="evenodd" fill="#13639C" points="131.952,37.127 128.08,37.127 128.08,50.609 
			121.524,50.609 121.524,37.127 117.65,37.127 117.65,33.745 131.952,33.745 131.952,37.127 		"/>
		<polyline fill-rule="evenodd" clip-rule="evenodd" fill="#13639C" points="106.563,32.858 109.706,31.326 111.83,31.285 
			114.44,32.798 106.563,32.858 		"/>
		<path fill-rule="evenodd" clip-rule="evenodd" fill="#13639C" d="M112.584,51.352c0,0.749-0.776,1.33-1.728,1.33
			c-0.952,0-1.703-0.581-1.703-1.33c0-0.723,0.751-1.329,1.703-1.329C111.808,50.022,112.584,50.628,112.584,51.352"/>
		<path fill-rule="evenodd" clip-rule="evenodd" fill="#13639C" d="M37.262,19.677c-0.151-0.158-0.419-0.239-0.86-0.239
			c-0.443,0-0.774,0.081-0.909,0.239c-0.109,0.164-0.176,0.504-0.176,1.13v6.647c0,0.545,0.066,0.907,0.176,1.07
			c0.135,0.143,0.466,0.224,0.863,0.244c0.465,0,0.709-0.082,0.886-0.224c0.134-0.144,0.222-0.464,0.222-0.968v-6.769
			C37.463,20.201,37.396,19.841,37.262,19.677 M44.855,24.475c0,1.05-0.088,3.266-0.31,3.77c-0.2,0.463-0.665,0.927-1.418,1.35
			c-0.707,0.402-1.638,0.703-2.787,0.927c-1.13,0.178-2.413,0.26-3.896,0.28c-1.639,0-3.011-0.081-4.184-0.219
			c-1.129-0.184-1.992-0.444-2.634-0.79c-0.642-0.341-1.085-0.764-1.329-1.248c-0.286-0.504-0.397-1.227-0.419-2.195v-4.431
			c0-1.07,0.243-1.896,0.751-2.501c0.488-0.605,1.328-1.089,2.613-1.451c1.283-0.361,2.878-0.566,4.891-0.566
			c1.66,0,3.076,0.123,4.272,0.367c1.216,0.24,2.101,0.52,2.789,0.927c1.615,0.444,1.172,0.464,1.172-1.294h2.813
			c0.042,1.793,0.509,2.904-2.48,2.985c0.067,0.361,0.155,0.764,0.155,1.289V24.475z"/>
		<polyline fill-rule="evenodd" clip-rule="evenodd" fill="#13639C" points="35.427,16.896 31.577,14.925 36.512,14.925 
			38.77,16.896 35.427,16.896 		"/>
		<path fill-rule="evenodd" clip-rule="evenodd" fill="#13639C" d="M47.931,17.502h7.637v12.997h-7.637V17.502z M47.931,14.965
			h7.637v1.834h-7.637V14.965z"/>
		<path fill-rule="evenodd" clip-rule="evenodd" fill="#13639C" d="M69.954,19.096v-1.069c0-0.464-0.089-0.765-0.287-0.907
			c-0.2-0.123-0.465-0.204-0.886-0.204c-0.464,0-0.841,0.102-1.086,0.285c-0.221,0.159-0.332,0.423-0.353,0.806
			c0,0.463,0.132,0.805,0.397,1.049c0.289,0.238,0.975,0.524,2.192,0.865c3.407,0.948,5.601,1.732,6.507,2.359
			c0.863,0.641,1.306,3.081,1.351,4.471c0,1.009-0.267,1.752-0.752,2.216c-0.488,0.463-1.44,0.865-2.899,1.192
			c-1.395,0.321-3.033,0.478-4.937,0.5c-2.06,0-3.83-0.199-5.29-0.581c-1.46-0.347-2.413-0.825-2.899-1.411
			c-0.421-0.565-0.62-1.391-0.688-2.419v-2.399h7.218v3.183c0,0.505,0.087,0.83,0.286,1.009c0.2,0.143,0.554,0.204,1.085,0.224
			c0.485,0,0.885-0.102,1.105-0.286c0.268-0.178,0.4-0.483,0.4-0.845c0-0.826-0.222-2.822-0.731-3.082
			c-0.443-0.286-1.638-0.688-3.585-1.268c-1.904-0.606-3.166-1.05-3.807-1.315c-0.62-0.28-1.151-0.641-1.572-1.146
			c-0.421-0.463-0.597-1.069-0.597-1.833c0-1.09,0.265-1.854,0.862-2.378c0.598-0.483,1.505-0.866,2.812-1.146
			c1.282-0.284,2.855-0.442,4.692-0.442c1.991,0,3.718,0.158,5.136,0.484c1.415,0.301,2.345,0.683,2.81,1.146
			c0.442,0.463,0.663,1.247,0.687,2.378v0.565H69.954"/>
		<path fill-rule="evenodd" clip-rule="evenodd" fill="#13639C" d="M87.396,19.677c-0.154-0.158-0.421-0.239-0.863-0.239
			c-0.466,0-0.753,0.081-0.886,0.239c-0.133,0.164-0.199,0.504-0.199,1.13v6.647c0,0.545,0.066,0.907,0.199,1.07
			c0.133,0.143,0.42,0.224,0.842,0.244c0.463,0,0.729-0.082,0.885-0.224c0.133-0.144,0.199-0.464,0.199-0.968v-6.769
			C87.572,20.201,87.55,19.841,87.396,19.677 M95.009,24.475c0,1.05-0.11,3.266-0.331,3.77c-0.222,0.463-0.666,0.927-1.418,1.35
			c-0.708,0.402-1.615,0.703-2.768,0.927c-1.15,0.178-2.434,0.26-3.938,0.28c-1.594,0-2.988-0.081-4.16-0.219
			c-1.106-0.184-1.993-0.444-2.612-0.79c-0.664-0.341-1.105-0.764-1.373-1.248c-0.265-0.504-0.376-1.227-0.397-2.195v-4.431
			c0-1.07,0.266-1.896,0.752-2.501c0.487-0.605,1.352-1.089,2.612-1.451c1.283-0.361,2.899-0.566,4.892-0.566
			c1.659,0,3.075,0.123,4.294,0.367c1.194,0.24,2.08,0.52,2.767,0.927c0.641,0.362,1.062,0.723,1.328,1.147
			c0.221,0.402,0.333,1.008,0.333,1.833L95.009,24.475z"/>
		<path fill-rule="evenodd" clip-rule="evenodd" fill="#13639C" d="M103.374,18.694c0.599-0.443,1.219-0.728,1.993-0.967
			c0.752-0.204,1.682-0.306,2.699-0.327c1.263,0,2.28,0.144,3.1,0.444c0.819,0.265,1.35,0.626,1.571,1.069
			c0.244,0.444,0.354,1.151,0.354,2.155v9.555h-7.413v-9.473c0-0.785-0.045-1.249-0.134-1.431c-0.134-0.179-0.42-0.28-0.951-0.28
			s-0.82,0.102-0.975,0.321c-0.153,0.204-0.177,0.729-0.244,1.594v9.27h-7.391V17.625h7.546L103.374,18.694"/>
		<polyline fill-rule="evenodd" clip-rule="evenodd" fill="#13639C" points="82.837,17.06 86,15.348 88.147,15.287 90.804,16.978 
			82.837,17.06 		"/>
		<polyline fill-rule="evenodd" clip-rule="evenodd" fill="#13639C" points="90.361,15.954 92.552,13.896 97.377,13.896 
			93.615,16.01 90.361,15.954 		"/>
		<path fill-rule="evenodd" clip-rule="evenodd" fill="#13639C" d="M123.893,19.779c-0.132-0.143-0.398-0.199-0.82-0.219
			c-0.419,0-0.729,0.076-0.95,0.259c-0.156,0.164-0.221,0.464-0.221,0.988v5.318c0,0.524,0.021,0.845,0.176,1.008
			c0.11,0.143,0.398,0.224,0.819,0.224c0.51,0,0.796-0.102,0.996-0.285c0.155-0.178,0.221-2.032,0.221-2.72v-3.545
			C124.113,20.283,124.048,19.942,123.893,19.779 M131.507,28.061c0,1.191-0.017,1.975-0.153,2.337
			c-0.092,0.321-0.538,0.703-1.246,1.09c-0.676,0.403-1.674,0.703-2.935,0.907c-1.291,0.219-2.837,0.321-4.784,0.321
			c-2.369,0-4.272-0.204-5.71-0.586c-1.439-0.361-2.147-1.104-2.214-2.216h7.192c0,0.484,0.399,0.745,1.174,0.745
			c0.575,0,0.886-0.056,1.128-0.22c0.199-0.163,0.265-0.483,0.265-0.987v-0.867c-0.642,0.26-1.282,0.464-2.036,0.626
			c-0.663,0.117-1.415,0.179-2.168,0.179c-1.306,0-2.457-0.122-3.299-0.362c-0.886-0.26-1.438-0.585-1.771-1.009
			c-0.309-0.401-0.464-0.988-0.485-1.752v-5.644c0-1.125,0.419-1.894,1.261-2.373c0.797-0.463,2.08-0.708,3.807-0.728
			c0.886,0,1.726,0.082,2.524,0.265c0.751,0.199,1.438,0.443,2.057,0.825l0.538-0.865h6.855V28.061z"/>
		<path fill="#13639C" d="M131.351,56.345"/>
		<path fill="#13639C" d="M10.492,35.821l-1.304-1.802l-0.364-0.501c0.838-0.83,1.561-1.669,1.882-2.149l-1.607-0.031
			c-0.289,0.444-0.646,0.841-0.938,1.13l-1.855-3.021c0.949-0.363,1.996-1.39,1.996-2.745c0-0.876-0.604-1.995-2.412-1.995
			c-1.285,0-2.768,0.647-2.768,2.642c0,0.757,0.231,1.375,0.715,2.336c-0.948,0.521-2.994,1.484-2.994,3.646
			c0,1.955,1.578,3.038,2.941,3.038c1.456,0,2.645-0.613,3.274-1.242l0.799,1.253h1.295h1.748L10.492,35.821z M5.687,25.718
			c3.088-0.238,0.895,2.877,0.14,2.849C5.49,28.143,4.97,27.35,4.97,26.597C4.97,25.879,5.343,25.744,5.687,25.718z M5.274,34.555
			c-3.243,0.799-2.828-2.877-0.968-3.852l0.541,0.935c0.434,0.779,0.998,1.767,1.416,2.415C5.96,34.317,5.609,34.555,5.274,34.555z"
			/>
		<path fill="#13639C" d="M26.729,17.182c-0.177-0.483-0.598-0.866-1.283-1.248c-0.643-0.387-1.66-0.646-2.987-0.79
			c-1.329-0.158-3.83-0.259-7.548-0.259H9.111v5.702H7.872v1.652h1.239v8.16h9.76c1.86,0,3.21-0.041,4.16-0.143
			c0.886-0.097,1.66-0.259,2.279-0.484c0.643-0.26,1.064-0.581,1.329-1.003c0.244-0.443,0.355-1.273,0.355-2.541v-6.387
			C26.995,18.511,26.928,17.625,26.729,17.182z M19.292,24.496c0,0.947-0.134,2.979-0.399,3.204c-0.265,0.198-0.951,0.3-2.035,0.3
			v-5.542h1.372v-1.652h-1.372v-3.502c0.862,0,1.415,0.021,1.682,0.117c0.354,0.081,0.532,0.224,0.619,0.402
			c0.11,0.184,0.134,0.585,0.134,1.212V24.496z"/>
		<path fill="#13639C" d="M23.011,36.123c-0.177-0.524-0.51-0.926-0.976-1.293c-0.487-0.362-1.216-0.622-2.189-0.805
			c-0.953-0.184-2.303-0.28-4.095-0.28H9.714l2.488,3.456l-3.069,0.041v13.347h6.596v-6.79h1.726c1.438-0.02,2.59-0.143,3.476-0.382
			c0.908-0.285,1.504-0.647,1.837-1.151c0.332-0.505,0.509-1.268,0.509-2.338v-1.472C23.254,37.391,23.165,36.643,23.011,36.123z
			 M17.785,39.383c0,0.647-0.13,1.029-0.352,1.253c-0.267,0.178-0.666,0.26-1.262,0.26c-0.133,0-0.311,0-0.443,0v-4.252
			c0.819,0,1.394,0.082,1.638,0.244c0.289,0.163,0.419,0.545,0.419,1.105V39.383z"/>
		<g>
			<path fill="#13639C" d="M12.304,58.065h0.921c-0.16,0.385-0.425,0.694-0.798,0.929c-0.373,0.236-0.772,0.353-1.195,0.353
				c-0.614,0-1.141-0.223-1.58-0.67c-0.439-0.447-0.659-0.978-0.659-1.592s0.219-1.141,0.653-1.58
				c0.436-0.439,0.955-0.659,1.563-0.659c0.443,0,0.854,0.119,1.232,0.358c0.379,0.239,0.648,0.559,0.808,0.959h-0.91
				c-0.136-0.168-0.304-0.299-0.504-0.395c-0.199-0.095-0.408-0.143-0.626-0.143c-0.389,0-0.721,0.146-0.997,0.437
				c-0.275,0.292-0.414,0.64-0.414,1.044c0,0.388,0.142,0.729,0.425,1.02c0.284,0.292,0.617,0.438,0.998,0.438
				c0.21,0,0.404-0.042,0.582-0.125C11.981,58.357,12.147,58.232,12.304,58.065z"/>
			<path fill="#13639C" d="M16.688,55.226v-0.035c0.116-0.019,0.201-0.05,0.255-0.093c0.07-0.055,0.105-0.133,0.105-0.233v-0.105
				h-0.36v-0.583h0.896v0.574c0,0.125-0.023,0.233-0.072,0.325s-0.128,0.19-0.242,0.295c-0.035,0.035-0.07,0.065-0.11,0.091
				c-0.038,0.025-0.086,0.047-0.14,0.067c0.18,0.207,0.317,0.443,0.417,0.711c0.099,0.268,0.147,0.553,0.147,0.857
				c0,0.622-0.197,1.15-0.594,1.586c-0.396,0.435-0.871,0.652-1.423,0.652c-0.556,0-1.032-0.216-1.431-0.65
				s-0.598-0.963-0.598-1.588c0-0.63,0.194-1.164,0.586-1.604c0.389-0.438,0.864-0.658,1.428-0.658c0.205,0,0.404,0.035,0.6,0.104
				C16.347,55.008,16.525,55.104,16.688,55.226z M15.567,55.617c-0.364,0-0.673,0.142-0.926,0.425s-0.379,0.628-0.379,1.032
				c0,0.408,0.127,0.756,0.381,1.046c0.255,0.289,0.563,0.434,0.924,0.434c0.351,0,0.655-0.146,0.916-0.437
				c0.26-0.292,0.39-0.64,0.39-1.043s-0.126-0.748-0.379-1.032S15.933,55.617,15.567,55.617z"/>
			<path fill="#13639C" d="M24.241,58.625v0.723h-0.104c-0.373,0-0.711-0.109-1.015-0.326c-0.162,0.101-0.357,0.181-0.583,0.239
				c-0.225,0.058-0.442,0.087-0.652,0.087c-0.625,0-1.162-0.214-1.609-0.641c-0.458-0.439-0.688-0.972-0.688-1.597
				c0-0.642,0.213-1.17,0.641-1.586c0.219-0.217,0.467-0.385,0.747-0.501c0.279-0.117,0.574-0.175,0.885-0.175
				c0.635,0,1.178,0.217,1.631,0.65c0.451,0.433,0.679,0.97,0.679,1.612c0,0.532-0.172,0.999-0.513,1.399
				c0.143,0.078,0.295,0.117,0.455,0.117H24.241z M20.394,57.062v0.233c0.188-0.054,0.391-0.082,0.609-0.082
				c0.421,0,0.838,0.109,1.252,0.326c0.137,0.07,0.235,0.124,0.299,0.164c0.173,0.104,0.325,0.222,0.462,0.35
				c0.121-0.121,0.21-0.26,0.267-0.417c0.058-0.157,0.085-0.33,0.085-0.516c0-0.412-0.144-0.764-0.432-1.056
				c-0.288-0.291-0.639-0.437-1.049-0.437c-0.203,0-0.395,0.04-0.578,0.117c-0.182,0.078-0.349,0.19-0.494,0.338
				c-0.129,0.128-0.23,0.278-0.306,0.449C20.432,56.702,20.394,56.879,20.394,57.062z M22.458,58.426
				c-0.241-0.171-0.461-0.301-0.659-0.391c-0.253-0.113-0.5-0.169-0.74-0.169c-0.081,0-0.151,0.003-0.21,0.011
				c-0.058,0.008-0.119,0.028-0.187,0.059c0.152,0.214,0.339,0.373,0.56,0.475c0.222,0.103,0.471,0.155,0.746,0.155
				c0.102,0,0.204-0.02,0.31-0.059C22.296,58.5,22.355,58.472,22.458,58.426z"/>
			<path fill="#13639C" d="M24.836,54.929h0.804v2.693c0,0.21,0.051,0.404,0.153,0.583c0.068,0.109,0.171,0.197,0.305,0.262
				c0.135,0.066,0.277,0.1,0.428,0.1c0.114,0,0.231-0.037,0.355-0.108c0.126-0.072,0.226-0.16,0.301-0.263
				c0.076-0.103,0.131-0.198,0.167-0.286c0.034-0.087,0.053-0.183,0.053-0.288v-2.693h0.805v2.693c0,0.249-0.022,0.453-0.065,0.612
				c-0.059,0.214-0.164,0.402-0.32,0.563c-0.154,0.161-0.349,0.293-0.58,0.396c-0.231,0.103-0.469,0.154-0.715,0.154
				c-0.236,0-0.469-0.048-0.696-0.143c-0.227-0.095-0.422-0.224-0.585-0.384c-0.163-0.161-0.276-0.349-0.339-0.563
				c-0.046-0.164-0.069-0.375-0.069-0.635V54.929z"/>
			<path fill="#13639C" d="M28.706,59.242l1.796-4.313h0.617l1.82,4.313h-0.888l-0.466-1.12H30.06l-0.479,1.12H28.706z
				 M30.35,57.354h0.922l-0.454-1.306L30.35,57.354z"/>
			<path fill="#13639C" d="M33.37,59.242v-4.313h0.897l1.796,3.148v-3.148h0.804v4.313l-0.89,0.002l-1.804-3.139v3.136H33.37z"/>
			<path fill="#13639C" d="M39.816,59.242v-3.533h-0.793v-0.781h2.39v0.781H40.61v3.533H39.816z"/>
			<path fill="#13639C" d="M42.771,59.242l-1.252-4.313h0.815l0.746,3.02l0.746-3.02h0.582l0.725,3.02l0.757-3.02h0.816
				l-1.246,4.313h-0.641l-0.7-2.848l-0.703,2.85L42.771,59.242z"/>
			<path fill="#13639C" d="M51.905,58.065h0.921c-0.159,0.385-0.425,0.694-0.798,0.929c-0.372,0.236-0.772,0.353-1.194,0.353
				c-0.615,0-1.142-0.223-1.58-0.67c-0.439-0.447-0.659-0.978-0.659-1.592s0.218-1.141,0.652-1.58
				c0.436-0.439,0.956-0.659,1.563-0.659c0.443,0,0.854,0.119,1.232,0.358c0.38,0.239,0.648,0.559,0.809,0.959h-0.91
				c-0.136-0.168-0.304-0.299-0.504-0.395c-0.2-0.095-0.408-0.143-0.627-0.143c-0.389,0-0.721,0.146-0.995,0.437
				c-0.277,0.292-0.415,0.64-0.415,1.044c0,0.388,0.141,0.729,0.425,1.02c0.283,0.292,0.616,0.438,0.998,0.438
				c0.209,0,0.403-0.042,0.582-0.125C51.583,58.357,51.749,58.232,51.905,58.065z"/>
			<path fill="#13639C" d="M53.502,54.929h0.806v2.693c0,0.21,0.05,0.404,0.151,0.583c0.07,0.109,0.171,0.197,0.306,0.262
				c0.134,0.066,0.277,0.1,0.428,0.1c0.114,0,0.231-0.037,0.356-0.108c0.125-0.072,0.225-0.16,0.301-0.263
				c0.075-0.103,0.131-0.198,0.165-0.286c0.035-0.087,0.053-0.183,0.053-0.288v-2.693h0.804v2.693c0,0.249-0.021,0.453-0.063,0.612
				c-0.059,0.214-0.164,0.402-0.32,0.563c-0.155,0.161-0.349,0.293-0.58,0.396c-0.231,0.103-0.469,0.154-0.715,0.154
				c-0.236,0-0.469-0.048-0.694-0.143c-0.229-0.095-0.424-0.224-0.587-0.384c-0.164-0.161-0.276-0.349-0.339-0.563
				c-0.047-0.164-0.07-0.375-0.07-0.635V54.929z"/>
			<path fill="#13639C" d="M54.926,53.646h-0.524v-0.07c0-0.066,0.012-0.128,0.034-0.187c0.027-0.046,0.05-0.082,0.066-0.104
				c0.018-0.023,0.053-0.062,0.108-0.117c0.077-0.074,0.171-0.125,0.276-0.154c0.107-0.029,0.232-0.044,0.377-0.044
				c0.221,0,0.415,0.059,0.583,0.176c0.085,0.066,0.146,0.13,0.18,0.19c0.035,0.061,0.054,0.134,0.054,0.22
				c0,0.207-0.114,0.386-0.339,0.538c-0.077,0.039-0.155,0.076-0.233,0.111c-0.077,0.046-0.116,0.1-0.116,0.158v0.187h-0.454v-0.375
				c0.003-0.027,0.007-0.055,0.011-0.082c0.031-0.043,0.065-0.074,0.099-0.094c0.086-0.043,0.131-0.066,0.134-0.07
				c0.09-0.046,0.166-0.095,0.228-0.146c0.083-0.07,0.123-0.134,0.123-0.193c0-0.085-0.022-0.152-0.066-0.199
				c-0.045-0.047-0.12-0.07-0.226-0.07c-0.108,0-0.197,0.034-0.269,0.105c-0.015,0.022-0.026,0.052-0.033,0.089
				c-0.009,0.038-0.012,0.069-0.012,0.097V53.646z"/>
			<path fill="#13639C" d="M57.606,59.242l1.795-4.313h0.618l1.817,4.313h-0.885l-0.467-1.12H58.96l-0.479,1.12H57.606z
				 M59.25,57.354h0.92l-0.453-1.306L59.25,57.354z"/>
			<path fill="#13639C" d="M63.96,59.242v-4.313h0.804v1.726h1.54v-1.726h0.792v4.313h-0.792v-1.807h-1.54v1.807H63.96z"/>
			<path fill="#13639C" d="M69.708,54.835c0.555,0,1.03,0.221,1.425,0.662c0.394,0.441,0.592,0.975,0.592,1.6
				c0,0.622-0.199,1.15-0.595,1.586c-0.396,0.435-0.87,0.652-1.422,0.652c-0.558,0-1.034-0.216-1.432-0.65
				c-0.399-0.434-0.598-0.963-0.598-1.588c0-0.63,0.196-1.164,0.588-1.604C68.66,55.055,69.14,54.835,69.708,54.835z M69.708,55.617
				c-0.366,0-0.675,0.142-0.928,0.425s-0.379,0.628-0.379,1.032c0,0.408,0.127,0.756,0.381,1.046
				c0.256,0.289,0.564,0.434,0.926,0.434c0.349,0,0.653-0.146,0.914-0.437c0.26-0.292,0.391-0.64,0.391-1.043
				s-0.126-0.748-0.379-1.032C70.382,55.758,70.071,55.617,69.708,55.617z"/>
			<path fill="#13639C" d="M68.682,54.543l0.746-0.804h0.617l0.758,0.804h-0.758l-0.315-0.373l-0.36,0.373H68.682z M69.381,60.303
				v-0.711h0.781v0.711H69.381z"/>
			<path fill="#13639C" d="M72.493,59.242v-4.313h0.804v4.313H72.493z"/>
			<path fill="#13639C" d="M75.875,59.242v-4.313h0.804v3.532h1.318v0.781H75.875z"/>
			<path fill="#13639C" d="M78.602,54.929h0.806v2.693c0,0.21,0.05,0.404,0.151,0.583c0.069,0.109,0.171,0.197,0.306,0.262
				c0.134,0.066,0.277,0.1,0.428,0.1c0.113,0,0.231-0.037,0.356-0.108c0.124-0.072,0.225-0.16,0.301-0.263
				c0.075-0.103,0.131-0.198,0.165-0.286c0.035-0.087,0.052-0.183,0.052-0.288v-2.693h0.805v2.693c0,0.249-0.021,0.453-0.063,0.612
				c-0.058,0.214-0.165,0.402-0.32,0.563c-0.155,0.161-0.35,0.293-0.581,0.396c-0.23,0.103-0.468,0.154-0.714,0.154
				c-0.236,0-0.469-0.048-0.697-0.143c-0.226-0.095-0.421-0.224-0.584-0.384c-0.164-0.161-0.276-0.349-0.339-0.563
				c-0.047-0.164-0.07-0.375-0.07-0.635V54.929z"/>
			<path fill="#13639C" d="M82.473,59.242l1.795-4.313h0.618l1.818,4.313h-0.886l-0.466-1.12h-1.527l-0.479,1.12H82.473z
				 M84.115,57.354h0.921l-0.453-1.306L84.115,57.354z"/>
			<path fill="#13639C" d="M83.557,54.543l0.746-0.804h0.619l0.758,0.804h-0.758l-0.316-0.373l-0.36,0.373H83.557z M84.257,60.303
				v-0.711h0.779v0.711H84.257z"/>
			<path fill="#13639C" d="M87.813,59.242v-3.533H87.02v-0.781h2.39v0.781h-0.805v3.533H87.813z"/>
			<path fill="#13639C" d="M95.717,56.199h-0.956c-0.126-0.179-0.289-0.318-0.494-0.419c-0.203-0.102-0.416-0.152-0.638-0.152
				c-0.384,0-0.719,0.125-1.003,0.374c-0.147,0.128-0.265,0.29-0.355,0.486c-0.089,0.197-0.133,0.396-0.133,0.598
				c0,0.179,0.034,0.357,0.107,0.536c0.071,0.179,0.171,0.334,0.301,0.467c0.306,0.318,0.679,0.478,1.118,0.478
				c0.253,0,0.497-0.071,0.731-0.213c0.235-0.142,0.411-0.328,0.528-0.557h-1.808v-0.758h2.81v0.094
				c0,0.622-0.226,1.146-0.675,1.574c-0.452,0.427-0.988,0.641-1.61,0.641c-0.629,0-1.171-0.216-1.627-0.647
				c-0.454-0.431-0.681-0.961-0.681-1.591c0-0.634,0.225-1.169,0.675-1.606c0.452-0.438,0.991-0.656,1.621-0.656
				c0.448,0,0.866,0.123,1.257,0.368C95.276,55.459,95.553,55.788,95.717,56.199z"/>
			<path fill="#13639C" d="M96.485,59.242v-4.313h0.805v4.313H96.485z"/>
			<path fill="#13639C" d="M97.826,59.242l1.795-4.313h0.617l1.82,4.313h-0.887l-0.466-1.12h-1.527l-0.479,1.12H97.826z
				 M99.471,57.354h0.921l-0.455-1.306L99.471,57.354z"/>
			<path fill="#13639C" d="M105.508,59.242l-1.678-4.313h0.839l1.166,3.276l1.154-3.276h0.84l-1.667,4.313H105.508z"/>
			<path fill="#13639C" d="M108.295,59.242v-4.313h0.803v4.313H108.295z"/>
			<path fill="#13639C" d="M109.985,59.242v-4.313h3.102v0.781h-2.298v0.991h2.298v0.77h-2.298v0.991h2.298v0.781H109.985z"/>
			<path fill="#13639C" d="M110.323,54.543l0.746-0.804h0.618l0.758,0.804h-0.758l-0.314-0.373l-0.362,0.373H110.323z
				 M111.022,60.303v-0.711h0.781v0.711H111.022z"/>
			<path fill="#13639C" d="M114.577,59.242v-3.533h-0.791v-0.781h2.39v0.781h-0.805v3.533H114.577z"/>
			<path fill="#13639C" d="M118.32,59.242v-4.313h0.898l1.794,3.148v-3.148h0.806v4.313l-0.891,0.002l-1.804-3.139v3.136H118.32z"/>
			<path fill="#13639C" d="M122.284,59.242l1.796-4.313h0.617l1.82,4.313h-0.888l-0.466-1.12h-1.526l-0.479,1.12H122.284z
				 M123.928,57.354h0.922l-0.455-1.306L123.928,57.354z"/>
			<path fill="#13639C" d="M126.948,59.242v-4.313h1.096l1.153,3.299l1.166-3.299h1.085v4.313h-0.794v-3.229l-1.117,3.23
				l-0.682,0.001l-1.105-3.231l0.002,3.229H126.948z"/>
		</g>
	</g>
	<g>
		<path fill="#13639C" d="M102.412,3.363c-0.536,0-0.99,0.208-1.36,0.625c-0.373,0.417-0.559,0.922-0.559,1.516
			c0,0.6,0.188,1.112,0.562,1.537c0.375,0.425,0.827,0.638,1.357,0.638c0.515,0,0.962-0.214,1.346-0.643
			c0.382-0.428,0.572-0.939,0.572-1.533c0-0.593-0.186-1.099-0.557-1.516C103.403,3.571,102.949,3.363,102.412,3.363z"/>
		<path fill="#13639C" d="M132.379,0h-34.62c-0.253,0-0.46,0.161-0.46,0.36v10.011c0,0.199,0.207,0.36,0.46,0.36h34.62
			c0.254,0,0.46-0.161,0.46-0.36V0.36C132.839,0.161,132.633,0,132.379,0z M104.502,7.866c-0.583,0.64-1.279,0.959-2.09,0.959
			c-0.816,0-1.517-0.318-2.103-0.955c-0.584-0.636-0.877-1.414-0.877-2.333c0-0.925,0.287-1.71,0.864-2.355
			c0.576-0.645,1.282-0.967,2.115-0.967c0.815,0,1.514,0.324,2.095,0.971c0.579,0.648,0.869,1.432,0.869,2.351
			C105.376,6.451,105.085,7.227,104.502,7.866z M111.301,8.688l-1.308,0.002l-2.648-4.609v4.606h-1.182V2.352h1.318l2.638,4.624
			V2.352h1.182V8.688z M115.615,8.688h-3.116V2.352h1.182v5.189h1.935V8.688z M117.551,8.688h-1.181V2.352h1.181V8.688z
			 M123.99,8.688l-1.307,0.002l-2.648-4.609v4.606h-1.183V2.352h1.319l2.637,4.624V2.352h1.182V8.688z M129.744,3.5h-3.373v1.456
			h3.373v1.13h-3.373v1.456h3.373v1.147h-4.555V2.352h4.555V3.5z"/>
	</g>
</g>
</svg>
